<?xml version="1.0" encoding="UTF-8"?>
<svg width="32px" height="32px" viewBox="0 0 32 32" version="1.1" xmlns="http://www.w3.org/2000/svg" xmlns:xlink="http://www.w3.org/1999/xlink">
    <title>Icons / Panier</title>
    <g id="Icons-/-Panier" stroke="none" stroke-width="1" fill="none" fill-rule="evenodd">
        <path d="M16,2.5 C18.4142733,2.5 20.3844891,4.40123652 20.495102,6.7881643 L20.5,7 L20.499,11 L23.1817005,11 C23.6712883,11 24.0918628,11.3128128 24.2117616,11.7491869 L24.2353382,11.8607452 L25.9475018,23.3037258 C26.3566559,26.0382439 24.3296925,28.5667413 21.4201524,28.9512829 C21.2565274,28.9729085 21.0919639,28.987352 20.9269977,28.9945782 L20.6793134,29 L11.3200237,29 C8.38185574,29 6,26.7614237 6,24 C6,23.8447048 6.00769804,23.6895361 6.02305663,23.5349977 L6.05183523,23.3037258 L7.76399884,11.8607452 C7.8321763,11.4050917 8.22033465,11.0572286 8.69681144,11.0064074 L8.81763653,11 L11.499,11 L11.5,7 L11.504898,6.7881643 C11.6155109,4.40123652 13.5857267,2.5 16,2.5 Z M14.5,11.1 L11.5,11.1 L11.5,16.6 L11.504898,16.8118357 C11.6155109,19.1987635 13.5857267,21.1 16,21.1 C18.4852814,21.1 20.5,19.0852814 20.5,16.6 L20.5,16.6 L20.5,11.1 L17.5,11.1 L17.5,16.6 L17.4931334,16.74446 C17.4204487,17.5051119 16.7796961,18.1 16,18.1 C15.1715729,18.1 14.5,17.4284271 14.5,16.6 L14.5,16.6 L14.5,11.1 Z M16,5.5 C15.2203039,5.5 14.5795513,6.09488808 14.5068666,6.85553999 L14.5,7 L14.499,11 L17.499,11 L17.5,7 L17.4931334,6.85553999 C17.4204487,6.09488808 16.7796961,5.5 16,5.5 Z" id="Combined-Shape" fill="#1A1A1A" fill-rule="nonzero"></path>
    </g>
</svg>