<svg id="Calque_1" data-name="Calque 1" xmlns="http://www.w3.org/2000/svg" viewBox="0 0 800 600"><defs><style>.cls-1{fill:#fff;}</style></defs><path class="cls-1" d="M254.57,159.6v93.48l.24.06c.5-1.16,1-2.33,1.52-3.47,3.55-7.63,8.15-14.58,15.16-19.87,9.05-6.82,19.35-8.63,30.51-6.18,11.72,2.58,20.17,9.38,26.49,18.73a55.06,55.06,0,0,1,9.16,26.32c1.44,16-1.23,31.26-10,45.22a69.88,69.88,0,0,1-17.46,18.76,77.56,77.56,0,0,1-26.12,12.57c-12.56,3.39-22.81,2.85-30.87,2.42-17.86-1-29.31-5.45-46.07-.19-.68.21-1.23.4-1.57.52v-2q0-63.17,0-126.33c0-5.27-.31-10.55-.65-15.82-.36-5.78-2.63-10.61-8.33-13.57-.32-.16-.48-.63-.71-.95a7,7,0,0,1,1.09-.63c4.47-1.55,9-3,13.45-4.56,0,0,.87-.29,4.48-1.68C221.36,180,236,171.61,254.57,159.6Zm0,127.64c0,8.76-.09,17.51,0,26.27a97,97,0,0,0,.91,11.92c.8,5.59,2.56,10.9,7,15,4.75,4.46,12.64,5.1,17.52.17a24.62,24.62,0,0,0,6.12-11.17c4.25-15.75,3.86-31.56.24-47.34-1.64-7.17-4.23-14-9-19.92-5.33-6.54-12.3-9.15-21-7.65-1.28.22-1.82.64-1.81,2C254.58,266.78,254.55,277,254.55,287.24Z"/><path class="cls-1" d="M393.6,261.18A71.55,71.55,0,0,0,396.08,276c2.84,10.12,7.95,19,16.31,26.08,11.16,9.39,24.31,12.89,39.13,11.13a35.52,35.52,0,0,0,15.83-5.41c2.13-1.42,4-3.21,6.24-5.06a4.3,4.3,0,0,1,0,1.3c-3.53,9.2-8.19,17.84-15.25,25.13a51.41,51.41,0,0,1-28.58,15c-14.67,2.6-29.14,1.71-43.06-3.49-14.45-5.38-25-14.75-31.35-28.17-4.89-10.41-6.42-21.34-5.59-32.62a58.54,58.54,0,0,1,14-34.24,63,63,0,0,1,41.31-22.44A67.19,67.19,0,0,1,443.2,229c13.95,6.63,23.36,16.94,27.34,31.32a3.15,3.15,0,0,1,.09.42c0,.09,0,.19-.06.43Zm-.22-1.66c4.17-.48,10.68-1.2,18.72-1.9,15.57-1.37,20.36-1.25,22.95-5,3-4.38.94-11.07-1.13-14.64-5.36-9.24-19-12.22-28.34-7.88a21.23,21.23,0,0,0-8.82,7.88c-2.68,4.42-3,9-3.37,14.32A51.76,51.76,0,0,0,393.38,259.52Z"/><path class="cls-1" d="M523.87,261.18A71.55,71.55,0,0,0,526.35,276c2.84,10.12,7.95,19,16.31,26.08C553.81,311.5,567,315,581.79,313.24a35.52,35.52,0,0,0,15.83-5.41c2.13-1.42,4-3.21,6.24-5.06a4,4,0,0,1,0,1.3c-3.52,9.2-8.18,17.84-15.24,25.13a51.4,51.4,0,0,1-28.59,15c-14.66,2.6-29.13,1.71-43.06-3.49-14.44-5.38-25-14.75-31.34-28.17-4.89-10.41-6.42-21.34-5.59-32.62a58.48,58.48,0,0,1,14-34.24,63,63,0,0,1,41.31-22.44A67.19,67.19,0,0,1,573.47,229c13.95,6.63,23.36,16.94,27.34,31.32a3.1,3.1,0,0,1,.08.42,2.6,2.6,0,0,1,0,.43Zm-.23-1.66c4.17-.48,10.69-1.2,18.73-1.9,15.57-1.37,20.36-1.25,23-5,3-4.38.94-11.07-1.13-14.64-5.36-9.24-19-12.22-28.34-7.88A21.36,21.36,0,0,0,527,238c-2.67,4.42-3,9-3.36,14.32A53.69,53.69,0,0,0,523.64,259.52Z"/><path class="cls-1" d="M407.13,399.11c9.07,0,14.67,4.75,14.67,12.3s-5.6,12.29-14.67,12.29H390.62v15.44h-5.24v-40Zm9.38,12.3c0-5.26-3.05-7.78-9.57-7.78H390.62v15.56h16.32C413.46,419.19,416.51,416.67,416.51,411.41Z"/><path class="cls-1" d="M439.34,430.74l-3.95,8.4h-5.67l19.19-40h5.54l19.19,40H468l-4-8.4Zm12.43-26.36h-.12l-10.36,22.07h20.83Z"/><path class="cls-1" d="M523.82,439.14h-6.09L506.89,423H495.38v16.18h-5.24v-40h20.71c9.19,0,14.55,4.41,14.55,11.9,0,7.09-4.62,11.38-12.66,11.89V423ZM520.11,411c0-4.92-3.23-7.38-9.63-7.38h-15.1v14.81H510.6C516.94,418.44,520.11,416,520.11,411Z"/><path class="cls-1" d="M549,399.11v40h-5.24v-40Z"/><path class="cls-1" d="M572.48,424.33c1,7.61,5.91,11.27,14.86,11.27,6.89,0,11.27-2.63,11.27-6.92s-3.35-6.23-13.76-8.29c-12.19-2.29-16.39-5.21-16.39-11.1,0-6.46,6.46-11,15.66-11s16.44,5.09,17.78,12.46l-5.18,1c-1.15-5.71-5.84-9-12.67-9-6.15,0-10.35,2.63-10.35,6.52,0,3.43,2.92,5,12.42,6.8,13.1,2.52,17.79,5.89,17.79,12.58,0,6.92-6.58,11.44-16.63,11.44-11.63,0-18.94-5.49-20-14.92Z"/></svg>