<svg id="Calque_1" data-name="Calque 1" xmlns="http://www.w3.org/2000/svg" viewBox="0 0 800 600"><defs><style>.cls-1{fill:#fff;}</style></defs><path class="cls-1" d="M315.54,233.68c-7.19-10.64-16.26-17-27.72-19.56-12.06-2.65-22.87-.45-32.14,6.53A49.17,49.17,0,0,0,242,237.18V148.37l-3.08,2c-17.7,11.46-32.76,20.15-39.3,22.68-3.47,1.34-4.36,1.64-4.44,1.67-2.48.89-5,1.74-7.52,2.56-2,.66-4,1.31-5.91,2a5.27,5.27,0,0,0-1.2.64l-.24.15-1.8,1.12,1.18,1.76.09.16a3.16,3.16,0,0,0,1.33,1.42c4.58,2.38,6.89,6.17,7.25,11.92.34,5.3.64,10.49.65,15.7q.06,48.41,0,96.83v34.26l2.65-.92c.33-.12.86-.3,1.52-.5,11.41-3.58,20.41-2.46,30.83-1.16,4.52.57,9.21,1.15,14.53,1.43,8.3.45,18.63,1,31.5-2.48a79.69,79.69,0,0,0,26.8-12.9,71.63,71.63,0,0,0,17.95-19.3c8.38-13.39,11.83-29,10.26-46.46A57.14,57.14,0,0,0,315.54,233.68Zm-54.39,22.25c4.05,5,6.8,11,8.65,19.09,3.8,16.57,3.73,31.73-.22,46.38A22.59,22.59,0,0,1,264,331.68c-4.31,4.36-11,3.28-14.72-.22-3.51-3.29-5.47-7.56-6.36-13.86a93.86,93.86,0,0,1-.89-11.67c-.1-6.2-.08-12.5-.06-18.6,0-2.55,0-5.09,0-7.64v-7.25c0-7.68,0-15.62,0-23.43l.15,0C250,247.61,256.24,249.88,261.15,255.93Z"/><path class="cls-1" d="M461,295.22V291l-3.27,2.68c-.73.6-1.43,1.2-2.1,1.78a41.8,41.8,0,0,1-4,3.15,33.52,33.52,0,0,1-14.95,5.1c-14.5,1.72-27.16-1.88-37.62-10.68-7.6-6.4-12.73-14.61-15.67-25.09a68.44,68.44,0,0,1-2.24-12.31H457.7l.27-1.87a2.71,2.71,0,0,0,0-.76,4,4,0,0,0-.15-.75c-4-14.59-13.59-25.56-28.4-32.6a69.13,69.13,0,0,0-39.26-6,65.12,65.12,0,0,0-42.58,23.13,60.66,60.66,0,0,0-14.47,35.38c-.91,12.42,1,23.42,5.78,33.62,6.47,13.76,17.39,23.58,32.45,29.2a80.14,80.14,0,0,0,28.16,5,91.09,91.09,0,0,0,15.95-1.43A53.3,53.3,0,0,0,445.16,323c6.54-6.74,11.52-14.94,15.68-25.81a3.7,3.7,0,0,0,.17-1.7A3,3,0,0,1,461,295.22ZM418.8,244c-1.64,2.36-4.91,2.73-16,3.65l-5.49.47c-5.58.49-11.17,1-16.65,1.66,0-1.61,0-3.23.11-4.83v-.12c.37-5.22.67-9.33,3.07-13.3a19.3,19.3,0,0,1,8-7.11,20.32,20.32,0,0,1,8.48-1.74c6.73,0,13.86,2.9,17.29,8.82C419.4,234.58,421.21,240.48,418.8,244Z"/><path class="cls-1" d="M591.28,295.53a3,3,0,0,1,0-.31V291L588,293.68q-1.1.9-2.1,1.77a39.27,39.27,0,0,1-4,3.16,33.52,33.52,0,0,1-14.95,5.1c-14.51,1.72-27.16-1.88-37.62-10.68-7.6-6.4-12.73-14.61-15.67-25.09a68.44,68.44,0,0,1-2.24-12.31H588l.28-1.86a2.82,2.82,0,0,0,0-.77,5,5,0,0,0-.15-.75c-4-14.59-13.59-25.56-28.4-32.6a69.13,69.13,0,0,0-39.26-6,65.1,65.1,0,0,0-42.58,23.13,60.59,60.59,0,0,0-14.47,35.38c-.91,12.42,1,23.42,5.78,33.62,6.47,13.76,17.38,23.58,32.45,29.2a80.14,80.14,0,0,0,28.16,5,91.09,91.09,0,0,0,16-1.43A53.3,53.3,0,0,0,575.43,323c6.54-6.74,11.52-15,15.68-25.81A3.83,3.83,0,0,0,591.28,295.53ZM549.07,244c-1.64,2.36-4.91,2.73-16,3.65l-5.49.47c-5.58.49-11.17,1-16.65,1.66,0-1.61,0-3.22.11-4.83v-.12c.37-5.22.66-9.33,3.07-13.3a19.25,19.25,0,0,1,8-7.11,20.4,20.4,0,0,1,8.49-1.74c6.73,0,13.85,2.9,17.29,8.82C549.67,234.58,551.48,240.48,549.07,244Z"/><path class="cls-1" d="M392.52,391.57c9.08,0,14.68,4.74,14.68,12.29s-5.6,12.29-14.68,12.29H376v15.44h-5.24v-40Zm9.38,12.29c0-5.26-3-7.78-9.56-7.78H376v15.56h16.32C398.86,411.64,401.9,409.12,401.9,403.86Z"/><path class="cls-1" d="M424.74,423.19l-4,8.4h-5.66l19.18-40h5.55l19.18,40h-5.6l-4-8.4Zm12.43-26.36H437L426.69,418.9h20.83Z"/><path class="cls-1" d="M509.22,431.59h-6.09l-10.85-16.18H480.77v16.18h-5.23v-40h20.7c9.2,0,14.56,4.4,14.56,11.89,0,7.09-4.63,11.38-12.67,11.89v.06Zm-3.72-28.13c0-4.92-3.23-7.38-9.62-7.38H480.77v14.81H496C502.33,410.89,505.5,408.43,505.5,403.46Z"/><path class="cls-1" d="M534.37,391.57v40h-5.24v-40Z"/><path class="cls-1" d="M557.88,416.78c1,7.61,5.91,11.27,14.86,11.27,6.88,0,11.27-2.63,11.27-6.92s-3.35-6.23-13.77-8.29c-12.18-2.29-16.38-5.21-16.38-11.1,0-6.46,6.45-11,15.65-11S586,395.8,587.3,403.17l-5.18,1c-1.16-5.72-5.85-9-12.67-9-6.15,0-10.35,2.63-10.35,6.52,0,3.43,2.92,5,12.42,6.8,13.1,2.52,17.79,5.89,17.79,12.58,0,6.92-6.58,11.44-16.63,11.44-11.63,0-18.94-5.49-20-14.92Z"/></svg>