<svg id="Calque_1" data-name="Calque 1" xmlns="http://www.w3.org/2000/svg" viewBox="0 0 800 600"><path d="M240,152.05v93.48l.25.06c.5-1.16,1-2.33,1.51-3.47,3.56-7.63,8.15-14.58,15.17-19.87,9.05-6.82,19.35-8.63,30.5-6.18,11.72,2.58,20.17,9.38,26.5,18.73a55.06,55.06,0,0,1,9.16,26.32c1.44,16-1.23,31.26-10,45.22a69.87,69.87,0,0,1-17.45,18.76,77.67,77.67,0,0,1-26.12,12.57c-12.56,3.39-22.81,2.85-30.87,2.42-17.86-.95-29.31-5.45-46.07-.19-.68.21-1.23.4-1.57.52v-2q0-63.16,0-126.33c0-5.27-.32-10.55-.65-15.82-.37-5.78-2.63-10.61-8.33-13.57-.33-.16-.48-.63-.71-1a6.91,6.91,0,0,1,1.08-.63c4.47-1.55,9-3,13.45-4.56,0,0,.88-.29,4.49-1.68C206.75,172.42,221.41,164.06,240,152.05Zm0,127.64c0,8.76-.09,17.51,0,26.27a95.37,95.37,0,0,0,.91,11.93c.79,5.58,2.56,10.89,7,15,4.75,4.46,12.64,5.1,17.51.17a24.54,24.54,0,0,0,6.13-11.17c4.24-15.75,3.86-31.56.24-47.34-1.65-7.17-4.24-14-9-19.92-5.33-6.54-12.31-9.15-21-7.65-1.29.22-1.82.64-1.81,2C240,259.24,240,269.46,240,279.69Z"/><path d="M189,343.23V309q0-48.42,0-96.83c0-5.21-.31-10.4-.65-15.7-.36-5.75-2.67-9.54-7.25-11.92a3.16,3.16,0,0,1-1.33-1.42l-.09-.16-1.18-1.76,1.8-1.12.24-.15a5.27,5.27,0,0,1,1.2-.64c2-.68,3.93-1.33,5.91-2,2.48-.82,5-1.67,7.52-2.56.08,0,1-.33,4.44-1.67,6.54-2.53,21.6-11.22,39.3-22.68l3.08-2v88.81a49.17,49.17,0,0,1,13.72-16.53c9.27-7,20.08-9.18,32.14-6.53,11.46,2.52,20.53,8.92,27.72,19.56a57.14,57.14,0,0,1,9.5,27.26c1.57,17.43-1.88,33.07-10.26,46.46a71.63,71.63,0,0,1-17.95,19.3A79.69,79.69,0,0,1,270,339.6c-12.87,3.48-23.2,2.93-31.5,2.48-5.32-.28-10-.86-14.53-1.43-10.42-1.3-19.42-2.42-30.83,1.16-.66.2-1.19.38-1.52.5ZM209,335.39a124.58,124.58,0,0,1,15.54,1.29c4.46.56,9.07,1.13,14.26,1.41a123.39,123.39,0,0,0,15.18.13,15.21,15.21,0,0,1-7.43-3.84c-4.16-3.91-6.56-9.06-7.58-16.21A98.51,98.51,0,0,1,238,306c-.1-6.23-.08-12.56-.06-18.68q0-3.81,0-7.62v-7.25c0-7.68,0-15.62,0-23.42a4.4,4.4,0,0,1,.34-1.87l-.29-.07V155.72c-16.78,10.75-30.45,18.55-36.94,21.06-3.62,1.4-4.54,1.71-4.58,1.72-2.48.89-5.06,1.75-7.56,2.58-1.25.41-2.49.82-3.73,1.25,4.37,3.09,6.78,7.74,7.17,13.86.34,5.36.64,10.62.65,15.94q.06,48.42,0,96.84v28.71A54.85,54.85,0,0,1,209,335.39Zm37.38-90.79c7.15,0,13.16,2.94,17.93,8.8,4.45,5.47,7.45,12.06,9.44,20.73,3.95,17.22,3.86,33-.26,48.31a26.37,26.37,0,0,1-6.63,12.05,13.43,13.43,0,0,1-3.53,2.56c1.84-.35,3.74-.78,5.7-1.31a75.48,75.48,0,0,0,25.45-12.24,67.56,67.56,0,0,0,17-18.22c8-12.82,11.18-27.2,9.67-44a53.33,53.33,0,0,0-8.83-25.38c-6.59-9.75-14.86-15.61-25.27-17.89-10.86-2.39-20.58-.43-28.87,5.82-5.94,4.48-10.57,10.55-14.55,19.11-.29.62-.56,1.25-.83,1.88A28.09,28.09,0,0,1,246.33,244.6ZM241.91,249c.05,7.81.05,15.75,0,23.43v7.25c0,2.55,0,5.09,0,7.64,0,6.1,0,12.4.06,18.6a93.86,93.86,0,0,0,.89,11.67c.89,6.3,2.85,10.57,6.36,13.86,3.72,3.5,10.41,4.58,14.72.22a22.59,22.59,0,0,0,5.62-10.28c3.95-14.65,4-29.81.22-46.38-1.85-8-4.6-14.12-8.65-19.09-4.91-6.05-11.16-8.32-19.09-7Z"/><path d="M379,253.63a72.22,72.22,0,0,0,2.47,14.85c2.85,10.12,8,19,16.32,26.08,11.15,9.39,24.31,12.89,39.13,11.14a35.65,35.65,0,0,0,15.83-5.42c2.13-1.42,4-3.21,6.24-5.06a4,4,0,0,1,0,1.3c-3.52,9.2-8.18,17.84-15.24,25.13a51.31,51.31,0,0,1-28.59,15c-14.66,2.6-29.13,1.71-43.06-3.49-14.44-5.38-25-14.75-31.34-28.17-4.89-10.41-6.42-21.34-5.59-32.62a58.47,58.47,0,0,1,14-34.24,63.13,63.13,0,0,1,41.32-22.44,67.19,67.19,0,0,1,38.14,5.81c13.95,6.63,23.36,16.94,27.34,31.32a3.1,3.1,0,0,1,.08.42,2.49,2.49,0,0,1,0,.43Zm-.23-1.65c4.17-.49,10.69-1.2,18.73-1.91,15.57-1.37,20.36-1.25,22.94-5,3.05-4.39.95-11.07-1.12-14.65-5.36-9.24-19-12.22-28.35-7.88a21.38,21.38,0,0,0-8.82,7.88c-2.68,4.42-3,9-3.36,14.32A52.2,52.2,0,0,0,378.77,252Z"/><path d="M399.54,340a80.14,80.14,0,0,1-28.16-5c-15.06-5.62-26-15.44-32.45-29.2-4.8-10.2-6.69-21.2-5.78-33.62a60.66,60.66,0,0,1,14.47-35.38,65.12,65.12,0,0,1,42.58-23.13,69.13,69.13,0,0,1,39.26,6c14.81,7,24.37,18,28.4,32.6a4,4,0,0,1,.15.75,2.71,2.71,0,0,1,0,.76l-.27,1.87H381.16a68.44,68.44,0,0,0,2.24,12.31c2.94,10.48,8.07,18.69,15.67,25.09,10.46,8.8,23.12,12.4,37.62,10.68a33.52,33.52,0,0,0,14.95-5.1,41.8,41.8,0,0,0,4-3.15c.67-.58,1.37-1.18,2.1-1.78L461,291v4.22a3,3,0,0,0,0,.31,3.7,3.7,0,0,1-.17,1.7c-4.16,10.87-9.14,19.07-15.68,25.81a53.3,53.3,0,0,1-29.67,15.54A91.09,91.09,0,0,1,399.54,340Zm.4-123a72.3,72.3,0,0,0-9.22.6,61.24,61.24,0,0,0-40.05,21.76,56.67,56.67,0,0,0-13.53,33.08c-.86,11.72.91,22.06,5.41,31.63,6,12.78,16.18,21.91,30.23,27.15,13.07,4.87,27.2,6,42,3.39a49.45,49.45,0,0,0,27.5-14.38,65.09,65.09,0,0,0,12.55-19c-.32.24-.65.47-1,.69a37.32,37.32,0,0,1-16.7,5.74c-15.65,1.85-29.33-2.05-40.66-11.59-8.13-6.84-13.83-15.95-16.95-27.07A73.83,73.83,0,0,1,377,254.19h-.11l-.14-2.09a54.92,54.92,0,0,1,0-7.48v-.13c.38-5.29.73-10.29,3.64-15.08a23.35,23.35,0,0,1,9.69-8.66c9.65-4.48,24.72-2,30.92,8.69,2.14,3.7,4.77,11.4,1,16.79-2.79,4-7.19,4.38-18.95,5.36l-.33,0h50.7c-4-12.59-12.63-22.12-25.77-28.37A64.12,64.12,0,0,0,399.94,217Zm.36,5.61a20.32,20.32,0,0,0-8.48,1.74,19.3,19.3,0,0,0-8,7.11c-2.4,4-2.7,8.08-3.07,13.3v.12c-.11,1.6-.15,3.22-.11,4.83,5.48-.61,11.07-1.17,16.65-1.66l5.49-.47c11.08-.92,14.35-1.29,16-3.65,2.41-3.48.6-9.38-1.21-12.5C414.16,225.54,407,222.64,400.3,222.64Z"/><path d="M509.26,253.63a72.9,72.9,0,0,0,2.48,14.85c2.84,10.12,8,19,16.31,26.08,11.16,9.39,24.32,12.89,39.14,11.14A35.69,35.69,0,0,0,583,300.28c2.13-1.42,4-3.21,6.24-5.06a4,4,0,0,1,0,1.3c-3.53,9.2-8.18,17.84-15.24,25.13a51.34,51.34,0,0,1-28.59,15c-14.67,2.6-29.13,1.71-43.06-3.49-14.44-5.38-25-14.75-31.34-28.17-4.89-10.41-6.42-21.34-5.59-32.62a58.47,58.47,0,0,1,14-34.24,63.13,63.13,0,0,1,41.32-22.44,67.21,67.21,0,0,1,38.14,5.81c14,6.63,23.36,16.94,27.33,31.32a2.1,2.1,0,0,1,.09.42,2,2,0,0,1-.06.43ZM509,252c4.17-.49,10.69-1.2,18.73-1.91,15.57-1.37,20.36-1.25,22.94-5,3-4.39.95-11.07-1.12-14.65-5.36-9.24-19-12.22-28.35-7.88a21.31,21.31,0,0,0-8.82,7.88c-2.68,4.42-3,9-3.36,14.32A52.2,52.2,0,0,0,509,252Z"/><path d="M529.81,340a80.14,80.14,0,0,1-28.16-5c-15.07-5.62-26-15.44-32.45-29.2-4.8-10.2-6.69-21.2-5.78-33.62a60.59,60.59,0,0,1,14.47-35.38,65.1,65.1,0,0,1,42.58-23.13,69.13,69.13,0,0,1,39.26,6c14.81,7,24.37,18,28.4,32.6a5,5,0,0,1,.15.75,2.82,2.82,0,0,1,0,.77l-.28,1.86H511.43a68.44,68.44,0,0,0,2.24,12.31c2.94,10.48,8.07,18.69,15.67,25.09,10.46,8.8,23.11,12.4,37.62,10.68a33.52,33.52,0,0,0,14.95-5.1,39.27,39.27,0,0,0,4-3.16q1-.87,2.1-1.77l3.27-2.68v4.22a3,3,0,0,0,0,.31,3.83,3.83,0,0,1-.17,1.7C587,308.09,582,316.3,575.43,323a53.3,53.3,0,0,1-29.67,15.54A91.09,91.09,0,0,1,529.81,340Zm.4-123a72.18,72.18,0,0,0-9.22.6,61.24,61.24,0,0,0-40.05,21.76,56.65,56.65,0,0,0-13.53,33.08c-.86,11.72.91,22.06,5.41,31.63,6,12.78,16.18,21.91,30.23,27.15,13.07,4.87,27.2,6,42,3.39a49.45,49.45,0,0,0,27.5-14.38,65.09,65.09,0,0,0,12.55-19c-.32.24-.65.47-1,.69a37.32,37.32,0,0,1-16.7,5.74c-15.64,1.86-29.33-2.05-40.66-11.59-8.13-6.84-13.83-15.95-16.95-27.07a73.13,73.13,0,0,1-2.52-14.83h-.11l-.14-2.09a53.35,53.35,0,0,1,0-7.48v-.13c.38-5.29.73-10.29,3.64-15.08a23.34,23.34,0,0,1,9.69-8.66c9.65-4.48,24.72-2,30.92,8.69,2.14,3.7,4.77,11.4,1,16.79-2.8,4-7.2,4.38-19,5.36l-.33,0h50.7c-4-12.59-12.64-22.12-25.77-28.37A64.12,64.12,0,0,0,530.21,217Zm.36,5.61a20.4,20.4,0,0,0-8.49,1.74,19.25,19.25,0,0,0-8,7.11c-2.41,4-2.7,8.08-3.07,13.3v.12c-.11,1.61-.15,3.22-.11,4.83,5.48-.61,11.07-1.17,16.65-1.66l5.49-.47c11.08-.92,14.35-1.29,16-3.65,2.41-3.48.6-9.38-1.21-12.5C544.42,225.54,537.3,222.64,530.57,222.64Z"/><path d="M392.52,391.57c9.08,0,14.68,4.74,14.68,12.29s-5.6,12.29-14.68,12.29H376v15.44h-5.24v-40Zm9.38,12.29c0-5.26-3-7.78-9.56-7.78H376v15.56h16.32C398.86,411.64,401.9,409.12,401.9,403.86Z"/><path d="M424.74,423.19l-4,8.4h-5.66l19.18-40h5.55l19.18,40h-5.6l-4-8.4Zm12.43-26.36H437L426.69,418.9h20.83Z"/><path d="M509.22,431.59h-6.09l-10.85-16.18H480.77v16.18h-5.23v-40h20.7c9.2,0,14.56,4.4,14.56,11.89,0,7.09-4.63,11.38-12.67,11.89v.06Zm-3.72-28.13c0-4.92-3.23-7.38-9.62-7.38H480.77v14.81H496C502.33,410.89,505.5,408.43,505.5,403.46Z"/><path d="M534.37,391.57v40h-5.24v-40Z"/><path d="M557.88,416.78c1,7.61,5.91,11.27,14.86,11.27,6.88,0,11.27-2.63,11.27-6.92s-3.35-6.23-13.77-8.29c-12.18-2.29-16.38-5.21-16.38-11.1,0-6.46,6.45-11,15.65-11S586,395.8,587.3,403.17l-5.18,1c-1.16-5.72-5.85-9-12.67-9-6.15,0-10.35,2.63-10.35,6.52,0,3.43,2.92,5,12.42,6.8,13.1,2.52,17.79,5.89,17.79,12.58,0,6.92-6.58,11.44-16.63,11.44-11.63,0-18.94-5.49-20-14.92Z"/></svg>